<?xml version="1.0" encoding="iso-8859-1"?>
<!DOCTYPE svg PUBLIC "-//W3C//DTD SVG 1.1//EN" "http://www.w3.org/Graphics/SVG/1.1/DTD/svg11.dtd">
<svg 
 version="1.1" xmlns="http://www.w3.org/2000/svg" xmlns:xlink="http://www.w3.org/1999/xlink" x="0px" y="0px" width="512px"
	 height="512px" viewBox="0 0 512 512" enable-background="new 0 0 512 512" xml:space="preserve"
><g id="2020da7681f0d538108a21c602013b0b"><g></g><g fill="#383838"><path display="inline" d="M309.007,169.89v104.322H465.49v61.811H309.007V511.5h-73.871V108.079h256.887v61.811H309.007z
		 M181.346,81.184c0,44.56-36.124,80.684-80.684,80.684c-44.561,0-80.685-36.124-80.685-80.684S56.102,0.5,100.662,0.5
		C145.222,0.5,181.346,36.624,181.346,81.184z M143.693,81.184c0-23.727-19.304-43.032-43.031-43.032
		c-23.728,0-43.032,19.305-43.032,43.032c0,23.728,19.304,43.032,43.032,43.032C124.389,124.216,143.693,104.912,143.693,81.184z"></path></g></g></svg>